<svg xmlns="http://www.w3.org/2000/svg" width="1080" height="1920" viewBox="0 0 1080 1920">
  <defs>
    <filter id="shadow" x="-20%" y="-20%" width="140%" height="140%"><feDropShadow dx="0" dy="18" stdDeviation="24" flood-color="#000000" flood-opacity="0.22"/></filter>
    <filter id="soft" x="-20%" y="-20%" width="140%" height="140%"><feDropShadow dx="0" dy="10" stdDeviation="14" flood-color="#000000" flood-opacity="0.16"/></filter>
    <linearGradient id="wash" x1="0" x2="1" y1="0" y2="1"><stop offset="0" stop-color="#f8f0ea"/><stop offset="1" stop-color="#e9f4ef"/></linearGradient>
  </defs>
  <rect width="1080" height="1920" fill="url(#wash)"/>
  <path d="M-80 250 C 260 90, 520 260, 1160 110" fill="none" stroke="#db3f38" stroke-width="120" opacity="0.08"/>
  <path d="M-110 1620 C 360 1460, 710 1750, 1190 1510" fill="none" stroke="#ef6f61" stroke-width="140" opacity="0.10"/>
  
    <text x="90" y="170" text-anchor="start" font-family="Arial, Helvetica, sans-serif" font-size="54" font-weight="900" fill="#151515" letter-spacing="0" >TRUEMED ACCESS</text>
    <text x="90" y="238" text-anchor="start" font-family="Arial, Helvetica, sans-serif" font-size="36" font-weight="700" fill="#3d4542" letter-spacing="0" >HSA/FSA dollars for wellness products</text>
    <rect x="80" y="330" width="920" height="520" rx="42" fill="#2b1010" stroke="#111" stroke-width="0" filter="url(#shadow)"/>
    <rect x="130" y="380" width="380" height="430" rx="26" fill="#5b1715" stroke="none" stroke-width="0" />
    <circle cx="320" cy="590" r="145" fill="#ff6b4a" stroke="none" stroke-width="0"/>
    <circle cx="320" cy="590" r="105" fill="#ff9278" stroke="none" stroke-width="0"/>
    <circle cx="320" cy="590" r="60" fill="#ffd0c2" stroke="none" stroke-width="0"/>
    <line x1="175" y1="735" x2="465" y2="735" stroke="#f6aa95" stroke-width="14" stroke-linecap="round" />
    <line x1="225" y1="773" x2="415" y2="773" stroke="#f6aa95" stroke-width="10" stroke-linecap="round" />
    <rect x="560" y="390" width="370" height="78" rx="20" fill="#ffffff" stroke="none" stroke-width="0" />
    <text x="585" y="442" text-anchor="start" font-family="Arial, Helvetica, sans-serif" font-size="36" font-weight="900" fill="#181818" letter-spacing="0" >HigherDose</text>
    <text x="585" y="518" text-anchor="start" font-family="Arial, Helvetica, sans-serif" font-size="44" font-weight="900" fill="#ffffff" letter-spacing="0" >Red Light Device</text>
    <text x="585" y="584" text-anchor="start" font-family="Arial, Helvetica, sans-serif" font-size="31" font-weight="700" fill="#f8d8d0" letter-spacing="0" >Eligible checkout path</text>
    <rect x="560" y="635" width="330" height="82" rx="22" fill="#27b071" stroke="none" stroke-width="0" />
    <text x="725" y="690" text-anchor="middle" font-family="Arial, Helvetica, sans-serif" font-size="38" font-weight="900" fill="#ffffff" letter-spacing="0" >PAY WITH FSA</text>
    <rect x="110" y="930" width="860" height="230" rx="34" fill="#ffffff" stroke="#e3ded5" stroke-width="3" filter="url(#soft)"/>
    <text x="158" y="1015" text-anchor="start" font-family="Arial, Helvetica, sans-serif" font-size="42" font-weight="900" fill="#141414" letter-spacing="0" >What changes:</text>
    <text x="158" y="1084" text-anchor="start" font-family="Arial, Helvetica, sans-serif" font-size="33" font-weight="750" fill="#4b5350" letter-spacing="0" >wellness products can route through benefits</text>
  
</svg>
